<?xml version="1.0" encoding="UTF-8"?>
<svg width="21px" height="20px" viewBox="0 0 21 20" version="1.1" xmlns="http://www.w3.org/2000/svg" xmlns:xlink="http://www.w3.org/1999/xlink">
    <g id="Tietojen-käyttö-sivu" stroke="none" stroke-width="1" fill="none" fill-rule="evenodd">
        <g id="Navi-mobiililla-auki-Copy-6" transform="translate(-104.000000, -417.000000)" fill="#FFFFFF" fill-rule="nonzero">
            <g id="Kirjautumis-ikoni" transform="translate(104.000000, 417.000000)">
                <g id="Group-4">
                    <path d="M14.2105263,1.66666667 L1.57894737,1.66666667 L1.57894737,18.3333333 L14.2105263,18.3333333 L14.2105263,20 L1,20 C0.44771525,20 2.88725622e-13,19.5522847 2.88657986e-13,19 L2.88657986e-13,1 C2.88590351e-13,0.44771525 0.44771525,1.01453063e-16 1,0 L14.2105263,0 L14.2105263,1.66666667 Z" id="Combined-Shape"></path>
                </g>
                <g id="Group-3" transform="translate(8.000000, 4.000000)">
                    <rect id="Rectangle-4" x="0" y="5.25" width="12" height="1.5"></rect>
                    <path d="M9.75,8.25 L9.75,2.25 L11.25,2.25 L11.25,8.25 L11.25,9.75 L3.75,9.75 L3.75,8.25 L9.75,8.25 Z" id="Combined-Shape" transform="translate(7.500000, 6.000000) rotate(-45.000000) translate(-7.500000, -6.000000) "></path>
                </g>
            </g>
        </g>
    </g>
</svg>
