<svg viewBox="0 0 574.82 412.03" width="154" height="109" preserveAspectRatio="xMidYMid meet" xmlns="http://www.w3.org/2000/svg"><path d="m577.24 414.52v-32h-3.42v25.61l-17-25.61h-3.24v32h3.42v-25.69l17 25.69zm-38.52-16c0 6.7-.22 8.86-2.25 10.93a7.82 7.82 0 0 1 -11.07 0c-2-2.07-2.25-4.23-2.25-10.93s.23-8.87 2.25-10.94a7.82 7.82 0 0 1 11.07 0c2 2.07 2.25 4.23 2.25 10.94m3.42 0c0-6.8 0-9.95-3-13a11.74 11.74 0 0 0 -16.38 0c-3 3-3 6.17-3 13s0 9.94 3 13a11.74 11.74 0 0 0 16.38 0c3-3 3-6.17 3-13m-33.84-16h-3.42v32h3.42zm-12.78 3.06v-3.06h-22v3.06h9.27v29h3.42v-29h9.27zm-31.72 18.73h-12l6-16.92zm7.2 10.22l-11.74-32h-2.88l-11.79 32h3.64l2.56-7.25h14l2.56 7.25zm-33.25-9.27h-3.42c-.85 3.91-3.69 6.48-7.69 6.48a7.71 7.71 0 0 1 -5.53-2.25c-2-2.07-2.25-4.27-2.25-11s .23-8.91 2.25-11a7.71 7.71 0 0 1 5.53-2.25c4 0 6.75 2.56 7.6 6.48h3.51c-1.08-6-5.35-9.54-11.11-9.54a11.42 11.42 0 0 0 -8.19 3.33c-3 3-3 6.17-3 13s0 9.94 3 13a11.42 11.42 0 0 0 8.19 3.33c5.71 0 10.08-3.51 11.11-9.54m-32.85-1.31v-21.51h-3.42v21.19c0 4.86-3.1 8.06-7.78 8.06s-7.74-3.19-7.74-8.06v-21.19h-3.42v21.47c0 6.39 4.68 10.84 11.16 10.84s11.2-4.45 11.2-10.84m-36.31-5.81c0 3.91.09 8.69-2.11 11a8.34 8.34 0 0 1 -6.3 2.34h-7v-25.94h7a8.34 8.34 0 0 1 6.3 2.34c2.2 2.29 2.11 6.34 2.11 10.26m3.42 0c0-4.46.18-9.36-3.15-12.69a11.2 11.2 0 0 0 -8.1-3h-11v32h11a11.2 11.2 0 0 0 8.1-3c3.33-3.33 3.15-9 3.15-13.41m-32.71 16.38v-3.06h-16.48v-11.46h14v-3.06h-14v-11.3h16.47v-3.06h-19.89v32h19.89zm-50.13-23.09c0 3.92-2.65 5.85-6.39 5.85h-8.55v-11.64h8.55c3.73 0 6.39 2 6.39 5.89m4 23.09l-7.57-14.52a8.31 8.31 0 0 0 7-8.59c0-5.54-3.91-8.91-9.49-8.91h-12.31v32h3.42v-14.2h7.69l7.29 14.22h4zm-36.81-16c0 6.7-.22 8.86-2.25 10.93a7.82 7.82 0 0 1 -11.07 0c-2-2.07-2.25-4.23-2.25-10.93s.23-8.87 2.25-10.94a7.82 7.82 0 0 1 11.07 0c2 2.07 2.25 4.23 2.25 10.94m3.42 0c0-6.8 0-9.95-3-13a11.74 11.74 0 0 0 -16.38 0c-3 3-3 6.17-3 13s0 9.94 3 13a11.74 11.74 0 0 0 16.38 0c3-3 3-6.17 3-13m-29.88-13v-3.06h-19.85v32h3.42v-14.07h14v-3.06h-14v-11.79h16.47zm-44.41-3.06h-3.69l-7.47 15.35-7.56-15.35h-3.69l9.54 18.81v13.23h3.42v-13.21zm-28.62 22.77h-3.42c-.85 3.91-3.69 6.48-7.69 6.48a7.71 7.71 0 0 1 -5.53-2.25c-2-2.07-2.25-4.27-2.25-11s .22-8.91 2.25-11a7.71 7.71 0 0 1 5.53-2.25c4 0 6.75 2.56 7.6 6.48h3.51c-1.08-6-5.35-9.54-11.11-9.54a11.42 11.42 0 0 0 -8.19 3.33c-3 3-3 6.17-3 13s0 9.94 3 13a11.42 11.42 0 0 0 8.19 3.33c5.71 0 10.08-3.51 11.11-9.54m-33.3 9.27v-32h-3.42v25.61l-17-25.61h-3.21v32h3.42v-25.71l17 25.69h3.24zm-34.15 0v-3.06h-16.42v-11.58h14v-3.06h-14v-11.3h16.45v-3.06h-19.89v32h19.89zm-31.23-11.7v-5.09h-11.26v3h7.87v2.43a8.4 8.4 0 0 1 -1.8 5.82 7.81 7.81 0 0 1 -6.07 2.75 7.71 7.71 0 0 1 -5.53-2.25c-2-2.07-2.25-4.27-2.25-11s .22-8.87 2.25-10.94a7.75 7.75 0 0 1 5.53-2.3c4 0 6.88 2.47 7.78 6.52h3.42c-.94-5.62-5.08-9.58-11.2-9.58a11.34 11.34 0 0 0 -8.19 3.33c-3 3-3 6.17-3 13s0 9.94 3 13a11.74 11.74 0 0 0 16.74-.36c2-2.12 2.74-4.59 2.74-8.28m-36.58 1.48h-12l6-16.92zm7.2 10.22l-11.74-32h-2.89l-11.79 32h3.65l2.56-7.25h14l2.56 7.25h3.64z" fill="#1d1d1b" transform="translate(-2.42 -2.76)"/><path d="m514.63 348.52v-3.06h-16.38v-29h-3.42v32h19.8zm-35.55-10.22h-12l6-16.92zm7.2 10.22l-11.74-32h-2.88l-11.79 32h3.64l2.56-7.25h14l2.56 7.25h3.64zm-35 0v-32h-3.42v25.61l-17-25.61h-3.24v32h3.42v-25.69l17 25.69zm-38.07-16c0 6.7-.22 8.86-2.25 10.93a7.82 7.82 0 0 1 -11.07 0c-2-2.07-2.25-4.23-2.25-10.93s.22-8.87 2.25-10.94a7.82 7.82 0 0 1 11.07 0c2 2.07 2.25 4.23 2.25 10.94m3.42 0c0-6.8 0-9.95-3-13a11.74 11.74 0 0 0 -16.38 0c-3 3-3 6.17-3 13s0 9.94 3 13a11.74 11.74 0 0 0 16.38 0c3-3 3-6.17 3-13m-33.84-16h-3.39v32h3.42v-32zm-12.79 3.02v-3.06h-22v3.06h9.27v29h3.42v-29zm-31.72 18.76h-12l6-16.92zm7.2 10.22l-11.74-32h-2.84l-11.79 32h3.64l2.56-7.25h14l2.56 7.25h3.64zm-35 0v-32h-3.42v25.61l-17-25.61h-3.24v32h3.42v-25.69l17 25.69zm-52 0v-32h-3.42v14.36h-15.15v-14.4h-3.42v32h3.42v-14.58h15.21v14.63h3.42zm-32.48-8.82a8 8 0 0 0 -2.7-6.35c-1.35-1.17-2.84-1.8-5.85-2.25l-3.51-.54a9.22 9.22 0 0 1 -4.32-1.76 4.63 4.63 0 0 1 -1.44-3.69c0-3.55 2.47-5.94 6.75-5.94a10.1 10.1 0 0 1 7.47 2.75l2.2-2.2a12.86 12.86 0 0 0 -9.54-3.51c-6.34 0-10.26 3.6-10.26 9a7.57 7.57 0 0 0 2.43 6 11.65 11.65 0 0 0  5.89 2.43l3.73.59c2.34.36 3.15.63 4.18 1.53a5.16 5.16 0 0 1 1.53 4c0 3.74-2.88 5.94-7.56 5.94a11 11 0 0 1 -8.73-3.51l-2.34 2.34c3 3 6.16 4.23 11 4.23 6.66 0 11.07-3.46 11.07-9.09m-32-23.19h-3.42v32h3.42zm-16.06 32v-32h-3.42v25.61l-17-25.61h-3.24v32h3.42v-25.65l17 25.69h3.24zm-36.31 0v-32h-3.42v25.61l-17-25.61h-3.21v32h3.42v-25.65l17 25.69h3.24zm-36.31-32h-3.42v32h3.42zm-13 3.06v-3.06h-19.9v32h3.42v-14.09h14v-3.06h-14v-11.79h16.47z" fill="#1d1d1b" transform="translate(-2.42 -2.76)"/><path d="m233 76.77c20.18-40.67 50.59-76.21 30.41-73.9a100.4 100.4 0 0 0 -32.91 10.13 116.29 116.29 0 0 1  14.36-5.87s-41.86 17.24-57.52 66.43a127.87 127.87 0 0 1 20.72-16.17c34.74-22-.61 22-8.37 77.66 7-9 15.81-23 25.84-38.3a110.24 110.24 0 0 1 7.45-20m109.56-5.64c-8.1-2.33-16.52 2.4-25 11.45-3 7.3-6.08 15.53-9.3 24.87-13.52 39.26-30.36 112-55 103a30.51 30.51 0 0 1 -6.12-3.05c-3.68 6.11-7.11 10.92-10.21 13.87a32.86 32.86 0 0 1 -9.28 6.34c46.68 45.94 132.65 44 127.76-13.09-6-69.91-5.39-98.11-4.85-140.18a30.39 30.39 0 0 0 -8-3.22m78.77 59a137.6 137.6 0 0 0 -3.42-29.26c-8.12-35.61-39.42-77.59-57-74.84-3.7.58-10.19 1.79-19 12.2 3.17 3.95 6.41 8.3 9.68 12.91 6.45-64.24 45.69 15.84 56.06 84a12 12 0 0 0 5.61 2.62c6.87 1.43 8-6.29 8.1-7.6" fill="#5bca13" transform="translate(-2.42 -2.76)"/><path d="m324.27 20.85c-59.49-36.23-135.27 167.4-140.89 116.15-14.62-98.62 61.48-129.86 61.48-129.86-48.86 16.18-87.4 65.95-86.53 123.39.88 57.75 33.11 90.86 44.73 96.61 14.71 7.27 27.56.37 33.9-5.86 24.39-23.19 68.45-160.81 105.59-150.15 41.56 10 36.05 97.61 38.06 114.41 4 33.46 13.39 29.46 26.39 4.88 8.75-16.49 14.44-35.5 14.31-60.55 0 0-.62 9.37-8.12 7.81-6.73-1.4-9.25-5.25-26.19-31.76-17.73-27.74-44.85-74.17-62.76-85.08" fill="#0041dc" transform="translate(-2.42 -2.76)"/></svg>